<?xml version="1.0" encoding="UTF-8" standalone="no"?>
<!-- Created with Inkscape (http://www.inkscape.org/) -->
<svg
   xmlns:svg="http://www.w3.org/2000/svg"
   xmlns="http://www.w3.org/2000/svg"
   version="1.0"
   width="42.519684"
   height="53.149605"
   id="svg2">
  <defs
     id="defs4" />
  <g
     id="layer2"
     style="display:none">
    <rect
       width="31.949493"
       height="34.973034"
       ry="0.21325016"
       x="5.0068707"
       y="9.2631512"
       id="rect3211"
       style="fill:none;fill-opacity:1;fill-rule:nonzero;stroke:#000000;stroke-width:0.07031591;stroke-linecap:butt;stroke-linejoin:miter;marker:none;marker-start:none;marker-mid:none;marker-end:none;stroke-miterlimit:4;stroke-dasharray:none;stroke-dashoffset:0;stroke-opacity:1;visibility:visible;display:inline;overflow:visible;enable-background:accumulate" />
    <rect
       width="42.519684"
       height="53.149605"
       ry="0.32408288"
       x="-3.1811524e-06"
       y="-1.6357421e-06"
       id="rect2383"
       style="fill:none;fill-opacity:1;fill-rule:nonzero;stroke:#000000;stroke-width:0.1;stroke-linecap:butt;stroke-linejoin:miter;marker:none;marker-start:none;marker-mid:none;marker-end:none;stroke-miterlimit:4;stroke-dasharray:none;stroke-dashoffset:0;stroke-opacity:1;visibility:visible;display:inline;overflow:visible;enable-background:accumulate" />
  </g>
  <path
     d="M 20.383916,7.7457517 C 20.383876,7.7457517 20.383916,7.9156517 20.383916,7.9331517 C 12.768146,8.4016517 5.8095059,13.560552 5.0400059,20.870952 C 4.3337359,27.580252 5.4608159,31.747752 10.258816,38.464552 C 11.086376,39.642552 11.450686,40.429552 11.540096,40.746152 C 10.980206,41.131852 10.701396,41.301252 10.446306,41.277352 C 10.155986,41.249952 9.2902659,40.946352 7.7275559,39.527052 L 5.1650259,42.339852 C 6.9957159,44.002352 8.4731959,44.905252 10.102556,45.058352 C 11.731916,45.211852 13.007886,44.425252 13.915096,43.777352 C 14.971606,43.022652 15.599026,41.342752 15.321366,40.058352 C 15.043696,38.774252 14.338226,37.679852 13.352586,36.277352 C 8.7716859,29.864052 8.1633359,27.527452 8.8213059,21.277152 C 9.3793359,15.975452 15.158876,11.558352 21.446396,11.558352 C 21.683436,11.558352 21.743966,11.558352 22.008906,11.558352 C 22.236796,11.558352 22.309406,11.558352 22.602656,11.558352 C 28.890176,11.558352 34.638476,15.975452 35.196506,21.277152 C 35.854506,27.527452 35.267526,29.864052 30.696466,36.277352 C 29.716446,37.679552 29.034346,38.775052 28.758956,40.058352 C 28.483576,41.341952 29.077476,43.022652 30.133986,43.777352 C 31.143236,44.498252 32.612466,45.198552 34.259006,44.902152 C 35.905586,44.606152 37.354406,43.528452 39.009046,41.714752 L 36.227786,39.152352 C 34.850776,40.661352 33.935056,41.086952 33.571506,41.152352 C 33.254776,41.209352 32.992656,41.071052 32.508986,40.746152 C 32.598746,40.427652 32.967076,39.642552 33.790276,38.464552 C 38.577666,31.747752 39.684116,27.580252 38.977806,20.870952 C 38.207276,13.550652 31.261986,8.3891517 23.633936,7.9331517 C 23.633936,7.9156517 23.633936,7.7457517 23.633936,7.7457517 C 23.607296,7.7457517 23.345406,7.7457517 23.258916,7.7457517 C 23.136026,7.7457517 22.791786,7.7457517 22.602656,7.7457517 C 22.309406,7.7457517 22.236796,7.7457517 22.008906,7.7457517 C 21.743966,7.7457517 21.683436,7.7457517 21.446396,7.7457517 C 21.025046,7.7457517 20.534206,7.7457517 20.446386,7.7457517 C 20.431256,7.7457517 20.424226,7.7457517 20.415146,7.7457517 C 20.407926,7.7457517 20.385926,7.7457517 20.383916,7.7457517 z"
     id="path4483"
     style="fill:#000000;fill-opacity:1;fill-rule:evenodd;stroke:none;stroke-width:3.79996967;stroke-linecap:butt;stroke-linejoin:miter;stroke-miterlimit:4;stroke-dasharray:none;stroke-opacity:1;display:inline" />
</svg>
