<?xml version="1.0" encoding="UTF-8" standalone="no"?>
<!-- Created with Inkscape (http://www.inkscape.org/) -->
<svg
   xmlns:svg="http://www.w3.org/2000/svg"
   xmlns="http://www.w3.org/2000/svg"
   version="1.0"
   width="42.519684"
   height="53.149605"
   id="svg2">
  <defs
     id="defs4" />
  <g
     id="layer2"
     style="display:none">
    <rect
       width="31.949493"
       height="34.973034"
       ry="0.21325016"
       x="5.0068707"
       y="9.2631512"
       id="rect3211"
       style="fill:none;fill-opacity:1;fill-rule:nonzero;stroke:#000000;stroke-width:0.07031591;stroke-linecap:butt;stroke-linejoin:miter;marker:none;marker-start:none;marker-mid:none;marker-end:none;stroke-miterlimit:4;stroke-dasharray:none;stroke-dashoffset:0;stroke-opacity:1;visibility:visible;display:inline;overflow:visible;enable-background:accumulate" />
    <rect
       width="42.519684"
       height="53.149605"
       ry="0.32408288"
       x="-3.1811524e-06"
       y="-1.6357421e-06"
       id="rect2383"
       style="fill:none;fill-opacity:1;fill-rule:nonzero;stroke:#000000;stroke-width:0.1;stroke-linecap:butt;stroke-linejoin:miter;marker:none;marker-start:none;marker-mid:none;marker-end:none;stroke-miterlimit:4;stroke-dasharray:none;stroke-dashoffset:0;stroke-opacity:1;visibility:visible;display:inline;overflow:visible;enable-background:accumulate" />
  </g>
  <g
     id="layer3"
     style="display:inline">
    <path
       d="M 19.65625,9.34375 C 19.479574,9.34375 19.34375,9.4795734 19.34375,9.65625 L 19.34375,13.0625 C 12.510127,13.995568 7.21875,19.894763 7.21875,26.9375 C 7.2187501,33.979696 12.510887,39.82106 19.34375,40.75 L 19.34375,44.1875 C 19.34375,44.364177 19.479574,44.500001 19.65625,44.5 L 22.8125,44.5 C 22.989177,44.5 23.124999,44.364176 23.125,44.1875 L 23.125,40.75 C 29.957864,39.821059 35.25,33.979696 35.25,26.9375 C 35.249999,19.894762 29.958623,13.995568 23.125,13.0625 L 23.125,9.65625 C 23.125,9.4795737 22.989178,9.34375 22.8125,9.34375 L 19.65625,9.34375 z M 19.3125,17.5625 C 19.322548,17.560444 19.333691,17.564524 19.34375,17.5625 L 19.34375,36.28125 C 14.991204,35.412126 11.75,31.590969 11.75,26.9375 C 11.75,22.294891 14.975208,18.449912 19.3125,17.5625 z M 23.125,17.5625 C 27.477399,18.438245 30.75,22.284136 30.75,26.9375 C 30.75,31.590969 27.477547,35.412127 23.125,36.28125 L 23.125,17.5625 z"
       id="path3826"
       style="opacity:1;fill:#000000;fill-opacity:1;fill-rule:nonzero;stroke:none;stroke-width:4.03743029;stroke-linecap:square;stroke-linejoin:miter;marker:none;stroke-miterlimit:4;stroke-dasharray:none;stroke-dashoffset:0;stroke-opacity:1;visibility:visible;display:inline;overflow:visible;enable-background:accumulate" />
  </g>
</svg>
