<?xml version="1.0" encoding="UTF-8" standalone="no"?>
<!-- Created with Inkscape (http://www.inkscape.org/) -->
<svg
   xmlns:svg="http://www.w3.org/2000/svg"
   xmlns="http://www.w3.org/2000/svg"
   version="1.0"
   width="42.519684"
   height="53.149605"
   id="svg2">
  <defs
     id="defs4" />
  <g
     id="layer2"
     style="display:none">
    <rect
       width="42.519684"
       height="53.149605"
       ry="0.32408288"
       x="-3.1811524e-06"
       y="-1.6357421e-06"
       id="rect2383"
       style="fill:none;fill-opacity:1;fill-rule:nonzero;stroke:#000000;stroke-width:0.1;stroke-linecap:butt;stroke-linejoin:miter;marker:none;marker-start:none;marker-mid:none;marker-end:none;stroke-miterlimit:4;stroke-dasharray:none;stroke-dashoffset:0;stroke-opacity:1;visibility:visible;display:inline;overflow:visible;enable-background:accumulate" />
    <path
       d="M 5.21875,9.21875 C 5.0737743,9.21875 4.96875,9.3237743 4.96875,9.46875 L 4.96875,44.03125 C 4.96875,44.176226 5.0737738,44.281252 5.21875,44.28125 L 36.75,44.28125 C 36.894976,44.28125 37.000001,44.176227 37,44.03125 L 37,9.46875 C 37,9.3237743 36.894975,9.21875 36.75,9.21875 L 5.21875,9.21875 z M 5.21875,9.3125 L 36.75,9.3125 C 36.841305,9.3125 36.90625,9.3774446 36.90625,9.46875 L 36.90625,44.03125 C 36.90625,44.122557 36.841305,44.1875 36.75,44.1875 L 5.21875,44.1875 C 5.127445,44.187501 5.0625,44.122555 5.0625,44.03125 L 5.0625,9.46875 C 5.0625,9.3774446 5.1274446,9.3125 5.21875,9.3125 z"
       id="rect3211"
       style="fill:#000000;fill-opacity:1;fill-rule:nonzero;stroke:none;stroke-width:0.07031591;stroke-linecap:butt;stroke-linejoin:miter;marker:none;stroke-miterlimit:4;stroke-dasharray:none;stroke-dashoffset:0;stroke-opacity:1;visibility:visible;display:inline;overflow:visible;enable-background:accumulate" />
  </g>
  <g
     id="layer3"
     style="display:inline">
    <path
       d="M 7.65625,9.34375 L 7.65625,44.34375 L 12.375,44.34375 L 12.375,13.34375 L 29.59375,13.34375 L 29.59375,24.78125 L 34.3125,24.78125 L 34.3125,9.34375 L 7.65625,9.34375 z"
       id="text5188"
       style="font-size:48px;font-style:normal;font-variant:normal;font-weight:normal;font-stretch:normal;text-align:start;line-height:100%;writing-mode:lr-tb;text-anchor:start;fill:#000000;fill-opacity:1;stroke:none;stroke-width:1px;stroke-linecap:butt;stroke-linejoin:miter;stroke-opacity:1;font-family:DejaVu Sans;-inkscape-font-specification:DejaVu Sans" />
  </g>
</svg>
