<?xml version="1.0" encoding="UTF-8" standalone="no"?>
<!-- Created with Inkscape (http://www.inkscape.org/) -->
<svg
   xmlns:svg="http://www.w3.org/2000/svg"
   xmlns="http://www.w3.org/2000/svg"
   version="1.0"
   width="42.519684"
   height="53.149605"
   id="svg2">
  <defs
     id="defs4" />
  <g
     id="layer2"
     style="display:none">
    <rect
       width="31.949493"
       height="34.973034"
       ry="0.21325016"
       x="5.0068707"
       y="9.2631512"
       id="rect3211"
       style="fill:none;fill-opacity:1;fill-rule:nonzero;stroke:#000000;stroke-width:0.07031591;stroke-linecap:butt;stroke-linejoin:miter;marker:none;marker-start:none;marker-mid:none;marker-end:none;stroke-miterlimit:4;stroke-dasharray:none;stroke-dashoffset:0;stroke-opacity:1;visibility:visible;display:inline;overflow:visible;enable-background:accumulate" />
    <rect
       width="42.519684"
       height="53.149605"
       ry="0.32408288"
       x="-3.1811524e-06"
       y="-1.6357421e-06"
       id="rect2383"
       style="fill:none;fill-opacity:1;fill-rule:nonzero;stroke:#000000;stroke-width:0.1;stroke-linecap:butt;stroke-linejoin:miter;marker:none;marker-start:none;marker-mid:none;marker-end:none;stroke-miterlimit:4;stroke-dasharray:none;stroke-dashoffset:0;stroke-opacity:1;visibility:visible;display:inline;overflow:visible;enable-background:accumulate" />
  </g>
  <path
     d="M 11.891968,7.806452 L 11.891968,9.706452 L 12.129468,43.431452 L 12.129468,45.331452 L 13.910718,45.331452 C 13.910718,45.331452 15.758578,45.368352 16.760718,45.331452 C 21.806208,45.147552 26.034618,43.474752 28.754468,40.106452 C 31.474318,36.737752 32.613938,32.004452 32.435718,25.856452 C 32.257418,19.705352 30.787048,15.031752 27.566968,11.962552 C 24.346888,8.893252 19.682688,7.717152 13.791968,7.806452 L 11.891968,7.806452 z M 15.691968,11.843552 C 19.862888,12.046152 23.032308,12.861552 24.954468,14.693552 C 27.191188,16.825752 28.472958,20.240852 28.635718,25.856452 C 28.798548,31.474352 27.712698,35.344652 25.785718,37.731452 C 23.858738,40.117852 20.975448,41.373752 16.641968,41.531452 C 16.450518,41.538252 16.239018,41.530352 15.929468,41.531452 L 15.691968,11.843552 z"
     id="path3895"
     style="fill:#000000;fill-opacity:1;fill-rule:evenodd;stroke:none;stroke-width:1px;stroke-linecap:butt;stroke-linejoin:miter;stroke-opacity:1;display:inline" />
</svg>
