<?xml version="1.0" encoding="UTF-8" standalone="no"?>
<!-- Created with Inkscape (http://www.inkscape.org/) -->
<svg
   xmlns:svg="http://www.w3.org/2000/svg"
   xmlns="http://www.w3.org/2000/svg"
   version="1.0"
   width="42.519684"
   height="53.149605"
   id="svg2">
  <defs
     id="defs4" />
  <g
     id="layer2"
     style="display:none">
    <rect
       width="31.949493"
       height="34.973034"
       ry="0.21325016"
       x="5.0068707"
       y="9.2631512"
       id="rect3211"
       style="fill:none;fill-opacity:1;fill-rule:nonzero;stroke:#000000;stroke-width:0.07031591;stroke-linecap:butt;stroke-linejoin:miter;marker:none;marker-start:none;marker-mid:none;marker-end:none;stroke-miterlimit:4;stroke-dasharray:none;stroke-dashoffset:0;stroke-opacity:1;visibility:visible;display:inline;overflow:visible;enable-background:accumulate" />
    <rect
       width="42.519684"
       height="53.149605"
       ry="0.32408288"
       x="-3.1811524e-06"
       y="-1.6357421e-06"
       id="rect2383"
       style="fill:none;fill-opacity:1;fill-rule:nonzero;stroke:#000000;stroke-width:0.1;stroke-linecap:butt;stroke-linejoin:miter;marker:none;marker-start:none;marker-mid:none;marker-end:none;stroke-miterlimit:4;stroke-dasharray:none;stroke-dashoffset:0;stroke-opacity:1;visibility:visible;display:inline;overflow:visible;enable-background:accumulate" />
  </g>
  <g
     id="layer3">
    <path
       d="M 21.09375,9.125 C 12.587817,9.125 5.6476634,16.374519 5.125,25.53125 C 5.0949049,25.580468 5.0625,25.625351 5.0625,25.6875 L 5.0625,27.34375 C 5.0625,27.398994 5.0695723,27.454575 5.09375,27.5 C 5.5160272,36.762645 12.519603,44.15625 21.09375,44.15625 C 29.677571,44.15625 36.685895,36.74608 37.09375,27.46875 C 37.110106,27.429951 37.125,27.388636 37.125,27.34375 L 37.125,25.6875 C 37.125,25.625351 37.092595,25.580468 37.0625,25.53125 C 36.539837,16.374519 29.599684,9.125 21.09375,9.125 z M 19.9375,13.5 L 19.9375,25.375 L 9.4375,25.375 C 9.9665678,18.935098 14.498779,14.108815 19.9375,13.5 z M 22.25,13.5 C 27.688722,14.108815 32.220932,18.935098 32.75,25.375 L 22.25,25.375 L 22.25,13.5 z M 9.4375,27.6875 L 19.9375,27.6875 L 19.9375,39.78125 C 14.44651,39.162554 9.8848034,34.235537 9.4375,27.6875 z M 22.25,27.6875 L 32.75,27.6875 C 32.302698,34.235536 27.740991,39.162554 22.25,39.78125 L 22.25,27.6875 z"
       id="path3178"
       style="opacity:1;fill:#000000;fill-opacity:1;fill-rule:nonzero;stroke:#000000;stroke-width:0.11321644;stroke-linecap:butt;stroke-linejoin:miter;marker:none;marker-start:none;marker-mid:none;marker-end:none;stroke-miterlimit:4;stroke-dasharray:none;stroke-dashoffset:0;stroke-opacity:1;visibility:visible;display:inline;overflow:visible;enable-background:accumulate" />
  </g>
</svg>
